<?xml version="1.0" ?><!DOCTYPE svg  PUBLIC '-//W3C//DTD SVG 1.1//EN'  'http://www.w3.org/Graphics/SVG/1.1/DTD/svg11.dtd'><svg enable-background="new 0 0 48 48" id="Layer_1" version="1.1" viewBox="0 0 48 48" xml:space="preserve" xmlns="http://www.w3.org/2000/svg" xmlns:xlink="http://www.w3.org/1999/xlink"><g><rect fill="#273376" height="31.4" width="47" x="0.5" y="8.3"/><g><polygon fill="#FFFFFF" points="20.1,8.3 27.9,8.3 27.9,19 47.5,18.7 47.5,29 27.9,29.3 27.9,39.7 20.1,39.7 20.1,29.3 0.5,29     0.5,18.7 20.1,19   "/><polygon fill="#FFFFFF" points="0.5,8.3 5.8,8.6 47.5,36.2 47.5,39.4 42.2,39.7 0.5,11.8   "/><g><polygon fill="#FFFFFF" points="47.5,8.3 42.2,8.6 0.5,36.2 0.5,39.4 5.8,39.7 47.5,11.8    "/></g></g><g><polygon fill="#EC2224" points="21.6,8.3 26.4,8.3 26.4,21 47.5,20.7 47.5,26.9 26.4,27.3 26.4,39.7 21.6,39.7 21.6,27.3     0.5,26.9 0.5,20.7 21.6,21   "/><path d="M0.5,8.3L16.2,19h-3.5L0.5,10.6V8.3z M47.5,8.3H44L28.3,19h3.5L47.5,8.3z" fill="#EC2224"/><g><path d="M47.5,39.4l-15.7-10h3.5l12.2,7.7V39.4z M0.5,39.4L4,39.7l15.7-10.4h-3.5L0.5,39.4z" fill="#EC2224"/></g></g></g></svg>