<?xml version="1.0" ?><!DOCTYPE svg  PUBLIC '-//W3C//DTD SVG 1.1//EN'  'http://www.w3.org/Graphics/SVG/1.1/DTD/svg11.dtd'><svg enable-background="new 0 0 48 48" id="Layer_1" version="1.1" viewBox="0 0 48 48" xml:space="preserve" xmlns="http://www.w3.org/2000/svg" xmlns:xlink="http://www.w3.org/1999/xlink"><g><g><rect fill="#FFFFFF" height="31.4" width="47" x="0.5" y="8.3"/></g><g><rect height="9.4" width="47" x="0.5" y="8.3"/></g><g><rect fill="#146734" height="9.4" width="47" x="0.5" y="30.3"/></g><g><g><g><path d="M18.4,33.3l0.3,0.2l9.1-15.9c0.5-0.1,0.8-0.7,1.1-1.2c0.2-0.3,1-1.7,1.3-3.5c-1.4,1.2-2.1,2.5-2.3,2.9      c-0.3,0.5-0.6,1-0.4,1.6L18.4,33.3z"/><path d="M18.8,33.6l-0.4-0.2l0,0l9.1-15.9c-0.1-0.5,0.2-1.1,0.5-1.6c0.8-1.4,1.7-2.4,2.3-2.9l0.1-0.1l0,0.1      c-0.2,0.8-0.5,2.1-1.3,3.5c-0.3,0.5-0.6,1-1.1,1.2L18.8,33.6z M18.5,33.3l0.3,0.2l9.1-15.9l0,0c0.5-0.1,0.8-0.6,1.1-1.1      c0.8-1.3,1.1-2.5,1.3-3.3c-0.6,0.5-1.5,1.5-2.2,2.8c-0.3,0.5-0.6,1-0.4,1.5l0,0l0,0L18.5,33.3z"/></g></g><g><g><path d="M18.4,33.3l0.3,0.2l9.1-15.9c0.5-0.1,0.8-0.7,1.1-1.2c0.2-0.3,1-1.7,1.3-3.5c-1.4,1.2-2.1,2.5-2.3,2.9      c-0.3,0.5-0.6,1-0.4,1.6L18.4,33.3z" fill="#FFFFFF"/></g></g></g><g><g><g><g><path d="M29.6,33.3l-0.3,0.2l-9.1-15.9c-0.5-0.1-0.8-0.7-1.1-1.2c-0.2-0.3-1-1.7-1.3-3.5c1.4,1.2,2.1,2.5,2.3,2.9       c0.3,0.5,0.6,1,0.4,1.6L29.6,33.3z"/><path d="M29.2,33.6L29.2,33.6l-9.2-15.9c-0.5-0.2-0.8-0.7-1.1-1.2c-0.8-1.4-1.2-2.7-1.3-3.5l0-0.1l0.1,0.1       c0.6,0.5,1.5,1.5,2.3,2.9c0.3,0.5,0.6,1,0.5,1.6l9.2,15.9L29.2,33.6z M17.7,13.1c0.2,0.8,0.5,2,1.3,3.3c0.3,0.5,0.6,1,1.1,1.1       l0,0l0,0l9.1,15.8l0.3-0.2l-9.1-15.9l0,0c0.1-0.5-0.1-1-0.4-1.5C19.2,14.6,18.4,13.7,17.7,13.1z"/></g></g><g><g><path d="M29.6,33.3l-0.3,0.2l-9.1-15.9c-0.5-0.1-0.8-0.7-1.1-1.2c-0.2-0.3-1-1.7-1.3-3.5       c1.4,1.2,2.1,2.5,2.3,2.9c0.3,0.5,0.6,1,0.4,1.6L29.6,33.3z" fill="#FFFFFF"/></g></g></g><g><path d="M0.5,19.3v9.4h19.8c0.6,1.6,2.5,4.7,3.7,4.7c1.2,0,3.1-3.1,3.7-4.7h19.8v-9.4H27.7     c-0.6-1.6-2.5-4.7-3.7-4.7c-1.2,0-3.1,3.1-3.7,4.7H0.5z" fill="#BA2025"/></g><g><path d="M27.7,28.7c0.6-1.6,1-3.1,1-4.7c0-1.6-0.4-3.1-1-4.7c-0.6,1.6-1,3.1-1,4.7C26.7,25.6,27.1,27.1,27.7,28.7L27.7,28.7z"/></g><g><g><path d="M20.3,28.7c-0.6-1.6-1-3.1-1-4.7c0-1.6,0.4-3.1,1-4.7c0.6,1.6,1,3.1,1,4.7C21.3,25.6,20.9,27.1,20.3,28.7L20.3,28.7z"/></g></g><g><g><ellipse cx="24" cy="24" fill="#FFFFFF" rx="0.8" ry="1.2"/></g><g><path d="M24.2,25.1c0,0,0.8,1.6,0.8,4.1c0,2.6-0.8,4.1-0.8,4.1V25.1z" fill="#FFFFFF"/></g><g><g><path d="M23.8,22.9c0,0-0.8-1.6-0.8-4.1c0-2.6,0.8-4.1,0.8-4.1V22.9z" fill="#FFFFFF"/></g></g><g><g><path d="M23.8,25.1c0,0-0.8,1.6-0.8,4.1c0,2.6,0.8,4.1,0.8,4.1V25.1z" fill="#FFFFFF"/></g></g><g><g><path d="M24.2,22.9c0,0,0.8-1.6,0.8-4.1c0-2.6-0.8-4.1-0.8-4.1V22.9z" fill="#FFFFFF"/></g></g></g></g></g></svg>